<svg xmlns="http://www.w3.org/2000/svg" xmlns:xlink="http://www.w3.org/1999/xlink" width="500" zoomAndPan="magnify" viewBox="0 0 375 374.999991" height="500" preserveAspectRatio="xMidYMid meet" version="1.0"><defs><clipPath id="1efd95d7c3"><path d="M 219 37.5 L 369.433594 37.5 L 369.433594 337.5 L 219 337.5 Z M 219 37.5 " clip-rule="nonzero"/></clipPath><clipPath id="ff3046289d"><path d="M 5.683594 37.5 L 156 37.5 L 156 337.5 L 5.683594 337.5 Z M 5.683594 37.5 " clip-rule="nonzero"/></clipPath><clipPath id="dc6954c607"><path d="M 107 107 L 268 107 L 268 268 L 107 268 Z M 107 107 " clip-rule="nonzero"/></clipPath><clipPath id="374df65021"><path d="M 107.949219 187.5 L 187.5 107.949219 L 267.050781 187.5 L 187.5 267.050781 Z M 107.949219 187.5 " clip-rule="nonzero"/></clipPath><clipPath id="3c89060d4e"><path d="M 0.761719 0.761719 L 160.121094 0.761719 L 160.121094 160.121094 L 0.761719 160.121094 Z M 0.761719 0.761719 " clip-rule="nonzero"/></clipPath><clipPath id="3e63794fd0"><path d="M 0.949219 80.5 L 80.5 0.949219 L 160.050781 80.5 L 80.5 160.050781 Z M 0.949219 80.5 " clip-rule="nonzero"/></clipPath><clipPath id="0855bf4f53"><rect x="0" width="161" y="0" height="161"/></clipPath></defs><g clip-path="url(#1efd95d7c3)"><path fill="#67ac39" d="M 219.09375 37.46875 L 219.09375 98.820312 L 307.734375 187.460938 L 219.09375 276.097656 L 219.09375 337.449219 L 369.085938 187.460938 Z M 219.09375 37.46875 " fill-opacity="1" fill-rule="nonzero"/></g><g clip-path="url(#ff3046289d)"><path fill="#67ac39" d="M 155.980469 98.820312 L 155.980469 37.46875 L 5.992188 187.460938 L 155.980469 337.449219 L 155.980469 276.097656 L 67.34375 187.460938 Z M 155.980469 98.820312 " fill-opacity="1" fill-rule="nonzero"/></g><path fill="#67ac39" d="M 114.285156 187.460938 L 187.535156 114.207031 L 260.789062 187.460938 L 187.535156 260.710938 Z M 114.285156 187.460938 " fill-opacity="1" fill-rule="nonzero"/><g clip-path="url(#dc6954c607)"><g clip-path="url(#374df65021)"><g transform="matrix(1, 0, 0, 1, 107, 107)"><g clip-path="url(#0855bf4f53)"><g clip-path="url(#3c89060d4e)"><g clip-path="url(#3e63794fd0)"><path fill="#67ac39" d="M 0.949219 80.5 L 80.5 0.949219 L 160.050781 80.5 L 80.5 160.050781 Z M 0.949219 80.5 " fill-opacity="1" fill-rule="nonzero"/></g></g></g></g></g></g></svg>